<svg width="50" height="50" viewBox="0 0 50 50" fill="none" xmlns="http://www.w3.org/2000/svg">
<g clip-path="url(#clip0_3_21)">
<path d="M41.6667 8.33334C42.7179 8.333 43.7304 8.73002 44.5011 9.44479C45.2719 10.1596 45.7441 11.1393 45.8229 12.1875L45.8333 12.5V37.5C45.8337 38.5512 45.4367 39.5637 44.7219 40.3345C44.0071 41.1053 43.0274 41.5774 41.9792 41.6563L41.6667 41.6667H8.33333C7.28213 41.667 6.26965 41.27 5.49886 40.5552C4.72807 39.8404 4.25593 38.8607 4.17709 37.8125L4.16667 37.5V12.5C4.16634 11.4488 4.56335 10.4363 5.27812 9.66553C5.99289 8.89473 6.97259 8.42259 8.02083 8.34375L8.33333 8.33334H41.6667ZM41.6667 15.4458L27.2083 29.9042C26.6224 30.4894 25.8281 30.8181 25 30.8181C24.1719 30.8181 23.3776 30.4894 22.7917 29.9042L8.33333 15.4458V37.5H41.6667V15.4458ZM38.7208 12.5H11.2792L25 26.2208L38.7208 12.5Z" fill="#F8F8F8"/>
</g>
<defs>
<clipPath id="clip0_3_21">
<rect width="50" height="50" fill="white"/>
</clipPath>
</defs>
</svg>
