<svg width="65" height="65" viewBox="0 0 65 65" fill="none" xmlns="http://www.w3.org/2000/svg">
<path d="M21.125 5.41667H43.875C52.5417 5.41667 59.5834 12.4583 59.5834 21.125V43.875C59.5834 48.0411 57.9284 52.0366 54.9825 54.9825C52.0366 57.9284 48.0411 59.5833 43.875 59.5833H21.125C12.4584 59.5833 5.41669 52.5417 5.41669 43.875V21.125C5.41669 16.9589 7.07167 12.9634 10.0176 10.0175C12.9634 7.07165 16.9589 5.41667 21.125 5.41667ZM20.5834 10.8333C17.9975 10.8333 15.5175 11.8606 13.6891 13.689C11.8606 15.5175 10.8334 17.9975 10.8334 20.5833V44.4167C10.8334 49.8063 15.1938 54.1667 20.5834 54.1667H44.4167C47.0025 54.1667 49.4825 53.1394 51.311 51.311C53.1395 49.4825 54.1667 47.0025 54.1667 44.4167V20.5833C54.1667 15.1938 49.8063 10.8333 44.4167 10.8333H20.5834ZM46.7188 14.8958C47.6166 14.8958 48.4777 15.2525 49.1126 15.8874C49.7475 16.5223 50.1042 17.3834 50.1042 18.2813C50.1042 19.1791 49.7475 20.0402 49.1126 20.6751C48.4777 21.31 47.6166 21.6667 46.7188 21.6667C45.8209 21.6667 44.9598 21.31 44.3249 20.6751C43.69 20.0402 43.3334 19.1791 43.3334 18.2813C43.3334 17.3834 43.69 16.5223 44.3249 15.8874C44.9598 15.2525 45.8209 14.8958 46.7188 14.8958ZM32.5 18.9583C36.0915 18.9583 39.5359 20.385 42.0754 22.9246C44.615 25.4642 46.0417 28.9085 46.0417 32.5C46.0417 36.0915 44.615 39.5359 42.0754 42.0754C39.5359 44.615 36.0915 46.0417 32.5 46.0417C28.9085 46.0417 25.4642 44.615 22.9246 42.0754C20.3851 39.5359 18.9584 36.0915 18.9584 32.5C18.9584 28.9085 20.3851 25.4642 22.9246 22.9246C25.4642 20.385 28.9085 18.9583 32.5 18.9583ZM32.5 24.375C30.3451 24.375 28.2785 25.231 26.7548 26.7548C25.231 28.2785 24.375 30.3451 24.375 32.5C24.375 34.6549 25.231 36.7215 26.7548 38.2452C28.2785 39.769 30.3451 40.625 32.5 40.625C34.6549 40.625 36.7215 39.769 38.2453 38.2452C39.769 36.7215 40.625 34.6549 40.625 32.5C40.625 30.3451 39.769 28.2785 38.2453 26.7548C36.7215 25.231 34.6549 24.375 32.5 24.375Z" fill="#8e4df7"/>
</svg>
