<svg width="65" height="65" viewBox="0 0 65 65" fill="none" xmlns="http://www.w3.org/2000/svg">
<path d="M51.5938 13.2979C49.1108 10.7898 46.1532 8.80118 42.8936 7.44805C39.634 6.09492 36.1376 5.40437 32.6083 5.41667C17.8208 5.41667 5.76876 17.4687 5.76876 32.2562C5.76876 36.9958 7.01459 41.6 9.34376 45.6625L5.55209 59.5833L19.7708 55.8458C23.6979 57.9854 28.1125 59.1229 32.6083 59.1229C47.3958 59.1229 59.4479 47.0708 59.4479 32.2833C59.4479 25.1062 56.6583 18.3625 51.5938 13.2979ZM32.6083 54.5729C28.6 54.5729 24.6729 53.4896 21.2333 51.4583L20.4208 50.9708L11.9708 53.1917L14.2188 44.9583L13.6771 44.1188C11.4502 40.5626 10.2677 36.4521 10.2646 32.2562C10.2646 19.9604 20.2854 9.93958 32.5813 9.93958C38.5396 9.93958 44.1458 12.2687 48.3438 16.4937C50.4224 18.5628 52.0696 21.0239 53.19 23.7343C54.3105 26.4447 54.8818 29.3505 54.8708 32.2833C54.925 44.5792 44.9042 54.5729 32.6083 54.5729ZM44.85 37.8896C44.1729 37.5646 40.8688 35.9396 40.2729 35.6958C39.65 35.4792 39.2167 35.3708 38.7563 36.0208C38.2958 36.6979 37.0229 38.2146 36.6438 38.6479C36.2646 39.1083 35.8583 39.1625 35.1813 38.8104C34.5042 38.4854 32.3375 37.7542 29.7917 35.4792C27.7875 33.6917 26.4604 31.4979 26.0542 30.8208C25.675 30.1437 26 29.7917 26.3521 29.4396C26.65 29.1417 27.0292 28.6542 27.3542 28.275C27.6792 27.8958 27.8146 27.5979 28.0313 27.1646C28.2479 26.7042 28.1396 26.325 27.9771 26C27.8146 25.675 26.4604 22.3708 25.9188 21.0167C25.3771 19.7167 24.8083 19.8792 24.4021 19.8521H23.1021C22.6417 19.8521 21.9375 20.0146 21.3146 20.6917C20.7188 21.3687 18.9854 22.9937 18.9854 26.2979C18.9854 29.6021 21.3958 32.7979 21.7208 33.2313C22.0458 33.6917 26.4604 40.4625 33.1771 43.3604C34.775 44.0646 36.0208 44.4708 36.9958 44.7688C38.5938 45.2833 40.0563 45.2021 41.2208 45.0396C42.5208 44.85 45.2021 43.4146 45.7438 41.8438C46.3125 40.2729 46.3125 38.9458 46.1229 38.6479C45.9333 38.35 45.5271 38.2146 44.85 37.8896Z" fill="#8e4df7"/>
</svg>
